<?xml version="1.0" encoding="utf-8"?>
<!-- Generator: Adobe Illustrator 18.1.1, SVG Export Plug-In . SVG Version: 6.00 Build 0)  -->
<!DOCTYPE svg PUBLIC "-//W3C//DTD SVG 1.0//EN" "http://www.w3.org/TR/2001/REC-SVG-20010904/DTD/svg10.dtd">
<svg version="1.0" id="Layer_1" xmlns="http://www.w3.org/2000/svg" xmlns:xlink="http://www.w3.org/1999/xlink" x="0px" y="0px"
	 viewBox="0 0 595.3 841.9" enable-background="new 0 0 595.3 841.9" xml:space="preserve">
<path id="linkedin-circle-icon_5_" fill="#EEEEEE" d="M297.6,123.3C133.9,123.3,0,257.2,0,420.9s133.9,297.6,297.6,297.6
	s297.6-133.9,297.6-297.6S461.3,123.3,297.6,123.3z M218.3,564.8h-64.5V354h64.5L218.3,564.8L218.3,564.8z M186,326.7
	c-22.3,0-39.7-17.4-39.7-39.7s17.4-39.7,39.7-39.7c19.8,0,37.2,17.4,37.2,39.7S205.9,326.7,186,326.7z M463.8,564.8h-64.5
	c0,0,0-79.4,0-111.6s-12.4-47.1-34.7-47.1c-27.3,0-39.7,17.4-39.7,47.1c0,32.2,0,111.6,0,111.6h-62V354h59.5v27.3
	c0,0,19.8-34.7,64.5-34.7s76.9,27.3,76.9,84.3S463.8,564.8,463.8,564.8z"/>
</svg>
