<?xml version="1.0" encoding="utf-8"?>
<!-- Generator: Adobe Illustrator 18.1.1, SVG Export Plug-In . SVG Version: 6.00 Build 0)  -->
<!DOCTYPE svg PUBLIC "-//W3C//DTD SVG 1.1//EN" "http://www.w3.org/Graphics/SVG/1.1/DTD/svg11.dtd">
<svg version="1.1" xmlns="http://www.w3.org/2000/svg" xmlns:xlink="http://www.w3.org/1999/xlink" x="0px" y="0px"
	 viewBox="0 0 22 22" enable-background="new 0 0 22 22" xml:space="preserve">
<g id="browser_window">
</g>
<g id="Layer_3">
</g>
<g id="Layer_5" display="none">
</g>
<g id="Layer_4">
	<g>
		<path fill="none" stroke="#F7F8F8" stroke-width="2" stroke-linecap="round" stroke-miterlimit="10" d="M10.2,5.9
			c1.2,1.2,1.2,3.1,0,4.3s-3.1,1.2-4.3,0l-4-4C0.7,5,0.7,3.1,1.9,1.9s3.1-1.2,4.3,0L10.2,5.9z"/>
		<path fill="none" stroke="#F7F8F8" stroke-width="2" stroke-linecap="round" stroke-miterlimit="10" d="M20.1,15.8
			c1.2,1.2,1.2,3.1,0,4.3c-1.2,1.2-3.1,1.2-4.3,0l-4-4c-1.2-1.2-1.2-3.1,0-4.3s3.1-1.2,4.3,0L20.1,15.8z"/>
		
			<line fill="none" stroke="#F7F8F8" stroke-width="2" stroke-linecap="round" stroke-miterlimit="10" x1="8.3" y1="8" x2="13.7" y2="13.4"/>
	</g>
</g>
<g id="browser_bar">
</g>
</svg>
