<?xml version="1.0" encoding="utf-8"?>
<!-- Generator: Adobe Illustrator 18.1.1, SVG Export Plug-In . SVG Version: 6.00 Build 0)  -->
<!DOCTYPE svg PUBLIC "-//W3C//DTD SVG 1.0//EN" "http://www.w3.org/TR/2001/REC-SVG-20010904/DTD/svg10.dtd">
<svg version="1.0" id="Layer_1" xmlns="http://www.w3.org/2000/svg" xmlns:xlink="http://www.w3.org/1999/xlink" x="0px" y="0px"
	 viewBox="0 0 595.3 841.9" enable-background="new 0 0 595.3 841.9" xml:space="preserve">
<g display="none">
	<g display="inline">
		<path fill="#FFFFFF" d="M31430.8-18809.1c0-99.2-81.9-181.1-181.1-181.1H-1376.6c-99.2,0-181.1,81.9-181.1,181.1V1043.5
			c0,166.2,136.4,305.1,305.1,305.1h32380.8c166.2,0,305.1-136.4,305.1-305.1v-19852.6H31430.8z"/>
	</g>
</g>
<g display="none">
	<path display="inline" fill="#FFFFFF" d="M31430.8-17199.3c0-166.2-136.4-305.1-305.1-305.1H-1255
		c-166.2,0-305.1,136.4-305.1,305.1V1043.5c0,166.2,136.4,305.1,305.1,305.1h32380.8c166.2,0,305.1-136.4,305.1-305.1
		L31430.8-17199.3L31430.8-17199.3z"/>
</g>
<rect x="-1537.8" y="-17040.6" display="none" fill="#FFFFFF" width="6448.9" height="18419"/>
<path id="tumblr-circle-icon_5_" fill="#EEEEEE" d="M297.6,123.3C133.9,123.3,0,257.2,0,420.9s133.9,297.6,297.6,297.6
	s297.6-133.9,297.6-297.6S461.3,123.3,297.6,123.3z M411.7,582.2c-14.9,7.4-27.3,12.4-39.7,14.9s-24.8,5-39.7,5
	c-17.4,0-29.8-2.5-42.2-5c-12.4-5-22.3-9.9-32.2-17.4c-9.9-7.4-14.9-14.9-17.4-24.8c-2.5-7.4-5-19.8-5-37.2v-124h-42.2v-49.6
	c14.9-5,24.8-9.9,34.7-19.8c9.9-7.4,17.4-19.8,24.8-29.8c5-12.4,9.9-27.3,12.4-44.6H315v89.3h84.3v57H315v91.8
	c0,19.8,0,34.7,2.5,39.7s7.4,9.9,12.4,14.9c7.4,5,17.4,7.4,27.3,7.4c17.4,0,37.2-5,54.6-17.4L411.7,582.2L411.7,582.2z"/>
</svg>
