<?xml version="1.0" encoding="utf-8"?>
<!-- Generator: Adobe Illustrator 18.1.1, SVG Export Plug-In . SVG Version: 6.00 Build 0)  -->
<!DOCTYPE svg PUBLIC "-//W3C//DTD SVG 1.0//EN" "http://www.w3.org/TR/2001/REC-SVG-20010904/DTD/svg10.dtd">
<svg version="1.0" id="Layer_1" xmlns="http://www.w3.org/2000/svg" xmlns:xlink="http://www.w3.org/1999/xlink" x="0px" y="0px"
	 viewBox="0 0 595.3 841.9" enable-background="new 0 0 595.3 841.9" xml:space="preserve">
<path id="twitter-4-icon_5_" fill="#EEEEEE" d="M297.6,123.3C133.9,123.3,0,257.2,0,420.9s133.9,297.6,297.6,297.6
	s297.6-133.9,297.6-297.6S461.3,123.3,297.6,123.3z M446.5,368.9c5,96.7-67,205.9-195.9,205.9c-39.7,0-74.4-12.4-106.7-32.2
	c37.2,5,74.4-5,101.7-29.8c-29.8,0-54.6-19.8-64.5-47.1c9.9,2.5,22.3,2.5,32.2,0c-32.2-7.4-57-37.2-54.6-69.4
	c9.9,5,19.8,7.4,32.2,7.4c-29.8-19.8-39.7-62-22.3-91.8C203.4,354,253,381.3,310,383.7c-9.9-42.2,22.3-84.3,67-84.3
	c19.8,0,37.2,7.4,49.6,22.3c14.9-2.5,29.8-9.9,44.6-17.4c-5,14.9-14.9,29.8-29.8,37.2c14.9-2.5,27.3-5,39.7-9.9
	C473.7,346.5,461.3,358.9,446.5,368.9z"/>
</svg>
